<mxfile host="app.diagrams.net" modified="2023-11-13T07:49:30.033Z" agent="Mozilla/5.0 (Windows NT 10.0; Win64; x64) AppleWebKit/537.36 (KHTML, like Gecko) Chrome/118.0.0.0 Safari/537.36" etag="BqpnU2rb1HksOfuHGYtn" version="22.1.0" type="github">
  <diagram name="第 1 页" id="F7G0wo-fSYltlhvz1KPH">
    <mxGraphModel dx="794" dy="1581" grid="1" gridSize="10" guides="1" tooltips="1" connect="1" arrows="1" fold="1" page="1" pageScale="1" pageWidth="827" pageHeight="1169" math="0" shadow="0">
      <root>
        <mxCell id="0" />
        <mxCell id="1" parent="0" />
        <mxCell id="1PgI1I01Q0n14vfVzNhf-3" value="" style="edgeStyle=orthogonalEdgeStyle;rounded=0;orthogonalLoop=1;jettySize=auto;html=1;" edge="1" parent="1" source="1PgI1I01Q0n14vfVzNhf-1" target="1PgI1I01Q0n14vfVzNhf-2">
          <mxGeometry relative="1" as="geometry" />
        </mxCell>
        <mxCell id="1PgI1I01Q0n14vfVzNhf-1" value="MF dialect" style="rounded=0;whiteSpace=wrap;html=1;" vertex="1" parent="1">
          <mxGeometry x="320" y="100" width="160" height="40" as="geometry" />
        </mxCell>
        <mxCell id="1PgI1I01Q0n14vfVzNhf-5" value="" style="edgeStyle=orthogonalEdgeStyle;rounded=0;orthogonalLoop=1;jettySize=auto;html=1;" edge="1" parent="1" source="1PgI1I01Q0n14vfVzNhf-2" target="1PgI1I01Q0n14vfVzNhf-4">
          <mxGeometry relative="1" as="geometry" />
        </mxCell>
        <mxCell id="1PgI1I01Q0n14vfVzNhf-2" value="MID dialect" style="rounded=0;whiteSpace=wrap;html=1;" vertex="1" parent="1">
          <mxGeometry x="320" y="220" width="160" height="40" as="geometry" />
        </mxCell>
        <mxCell id="1PgI1I01Q0n14vfVzNhf-22" value="" style="edgeStyle=orthogonalEdgeStyle;rounded=0;orthogonalLoop=1;jettySize=auto;html=1;" edge="1" parent="1" source="1PgI1I01Q0n14vfVzNhf-4" target="1PgI1I01Q0n14vfVzNhf-21">
          <mxGeometry relative="1" as="geometry" />
        </mxCell>
        <mxCell id="1PgI1I01Q0n14vfVzNhf-4" value="BE dialect" style="rounded=0;whiteSpace=wrap;html=1;" vertex="1" parent="1">
          <mxGeometry x="320" y="350" width="160" height="40" as="geometry" />
        </mxCell>
        <mxCell id="1PgI1I01Q0n14vfVzNhf-9" style="edgeStyle=orthogonalEdgeStyle;rounded=0;orthogonalLoop=1;jettySize=auto;html=1;exitX=0.5;exitY=1;exitDx=0;exitDy=0;entryX=0.5;entryY=0;entryDx=0;entryDy=0;" edge="1" parent="1" source="1PgI1I01Q0n14vfVzNhf-6" target="1PgI1I01Q0n14vfVzNhf-1">
          <mxGeometry relative="1" as="geometry" />
        </mxCell>
        <mxCell id="1PgI1I01Q0n14vfVzNhf-6" value="ONNX" style="rounded=0;whiteSpace=wrap;html=1;" vertex="1" parent="1">
          <mxGeometry x="120" y="-80" width="160" height="40" as="geometry" />
        </mxCell>
        <mxCell id="1PgI1I01Q0n14vfVzNhf-12" style="edgeStyle=orthogonalEdgeStyle;rounded=0;orthogonalLoop=1;jettySize=auto;html=1;exitX=0.5;exitY=1;exitDx=0;exitDy=0;entryX=0.5;entryY=0;entryDx=0;entryDy=0;" edge="1" parent="1" source="1PgI1I01Q0n14vfVzNhf-7" target="1PgI1I01Q0n14vfVzNhf-1">
          <mxGeometry relative="1" as="geometry" />
        </mxCell>
        <mxCell id="1PgI1I01Q0n14vfVzNhf-7" value="Relay" style="rounded=0;whiteSpace=wrap;html=1;" vertex="1" parent="1">
          <mxGeometry x="320" y="-80" width="160" height="40" as="geometry" />
        </mxCell>
        <mxCell id="1PgI1I01Q0n14vfVzNhf-13" style="edgeStyle=orthogonalEdgeStyle;rounded=0;orthogonalLoop=1;jettySize=auto;html=1;exitX=0.5;exitY=1;exitDx=0;exitDy=0;entryX=0.5;entryY=0;entryDx=0;entryDy=0;" edge="1" parent="1" source="1PgI1I01Q0n14vfVzNhf-8" target="1PgI1I01Q0n14vfVzNhf-1">
          <mxGeometry relative="1" as="geometry" />
        </mxCell>
        <mxCell id="1PgI1I01Q0n14vfVzNhf-8" value="Torch" style="rounded=0;whiteSpace=wrap;html=1;" vertex="1" parent="1">
          <mxGeometry x="520" y="-80" width="160" height="40" as="geometry" />
        </mxCell>
        <mxCell id="1PgI1I01Q0n14vfVzNhf-14" value="" style="endArrow=none;dashed=1;html=1;rounded=0;" edge="1" parent="1">
          <mxGeometry width="50" height="50" relative="1" as="geometry">
            <mxPoint x="200" y="60" as="sourcePoint" />
            <mxPoint x="750" y="60" as="targetPoint" />
          </mxGeometry>
        </mxCell>
        <mxCell id="1PgI1I01Q0n14vfVzNhf-15" value="" style="endArrow=none;dashed=1;html=1;rounded=0;" edge="1" parent="1">
          <mxGeometry width="50" height="50" relative="1" as="geometry">
            <mxPoint x="200" y="180" as="sourcePoint" />
            <mxPoint x="750" y="180" as="targetPoint" />
          </mxGeometry>
        </mxCell>
        <mxCell id="1PgI1I01Q0n14vfVzNhf-16" value="" style="endArrow=none;dashed=1;html=1;rounded=0;" edge="1" parent="1">
          <mxGeometry width="50" height="50" relative="1" as="geometry">
            <mxPoint x="200" y="300" as="sourcePoint" />
            <mxPoint x="750" y="300" as="targetPoint" />
          </mxGeometry>
        </mxCell>
        <mxCell id="1PgI1I01Q0n14vfVzNhf-17" value="Step1" style="text;html=1;align=center;verticalAlign=middle;resizable=0;points=[];autosize=1;strokeColor=none;fillColor=none;" vertex="1" parent="1">
          <mxGeometry x="115" y="48" width="50" height="30" as="geometry" />
        </mxCell>
        <mxCell id="1PgI1I01Q0n14vfVzNhf-18" value="Step2" style="text;html=1;align=center;verticalAlign=middle;resizable=0;points=[];autosize=1;strokeColor=none;fillColor=none;" vertex="1" parent="1">
          <mxGeometry x="115" y="160" width="50" height="30" as="geometry" />
        </mxCell>
        <mxCell id="1PgI1I01Q0n14vfVzNhf-19" value="Step3" style="text;html=1;align=center;verticalAlign=middle;resizable=0;points=[];autosize=1;strokeColor=none;fillColor=none;" vertex="1" parent="1">
          <mxGeometry x="115" y="280" width="50" height="30" as="geometry" />
        </mxCell>
        <mxCell id="1PgI1I01Q0n14vfVzNhf-20" value="" style="endArrow=none;dashed=1;html=1;rounded=0;" edge="1" parent="1">
          <mxGeometry width="50" height="50" relative="1" as="geometry">
            <mxPoint x="210" y="440" as="sourcePoint" />
            <mxPoint x="760" y="440" as="targetPoint" />
          </mxGeometry>
        </mxCell>
        <mxCell id="1PgI1I01Q0n14vfVzNhf-21" value="Binary" style="rounded=0;whiteSpace=wrap;html=1;" vertex="1" parent="1">
          <mxGeometry x="320" y="470" width="160" height="40" as="geometry" />
        </mxCell>
        <mxCell id="1PgI1I01Q0n14vfVzNhf-23" value="Step4" style="text;html=1;align=center;verticalAlign=middle;resizable=0;points=[];autosize=1;strokeColor=none;fillColor=none;" vertex="1" parent="1">
          <mxGeometry x="115" y="430" width="50" height="30" as="geometry" />
        </mxCell>
      </root>
    </mxGraphModel>
  </diagram>
</mxfile>
